<svg version="1.1" id="Layer_1" xmlns="http://www.w3.org/2000/svg" xmlns:xlink="http://www.w3.org/1999/xlink" x="0px" y="0px"
	 width="100%" viewBox="0 0 500 500" enable-background="new 0 0 500 500" xml:space="preserve">
<path fill="#47704C" opacity="1.000000" stroke="none" 
	d="
M326.000000,501.000000 
	C217.333359,501.000000 109.166718,501.000000 1.000058,501.000000 
	C1.000039,334.333405 1.000039,167.666794 1.000019,1.000148 
	C167.666565,1.000098 334.333130,1.000098 500.999756,1.000049 
	C500.999847,167.666519 500.999847,334.333038 500.999939,500.999786 
	C442.833344,501.000000 384.666656,501.000000 326.000000,501.000000 
M147.152252,206.002762 
	C146.382660,208.019867 145.613068,210.036972 144.067352,212.021729 
	C135.882095,211.462555 130.219147,206.093781 124.111656,201.005188 
	C123.320335,204.091461 123.068909,206.669159 123.066879,209.247055 
	C123.029228,257.076996 122.746773,304.909393 123.175652,352.735352 
	C123.303070,366.944580 131.066940,377.965759 143.305862,384.793976 
	C156.048737,391.903381 170.202347,391.036926 184.204910,389.422913 
	C189.569107,388.804596 195.021378,387.364502 200.282593,387.869934 
	C205.918289,388.411316 211.606171,390.261810 216.865234,392.496521 
	C228.857422,397.592316 241.623047,396.721802 254.085007,397.858704 
	C260.911591,398.481476 267.985413,397.899567 274.793976,396.856842 
	C284.670074,395.344269 294.673431,393.751190 304.143463,390.703766 
	C319.954865,385.615753 333.611725,376.492493 346.036560,365.452759 
	C355.278534,357.241058 363.200623,347.894714 369.997131,337.685944 
	C373.792389,331.985291 376.472443,325.514801 379.410156,319.275940 
	C387.132782,302.875336 392.297668,285.854736 391.985901,267.457916 
	C391.828644,258.176819 393.674225,248.585907 391.915344,239.667343 
	C388.621735,222.966614 384.486755,206.408951 375.819580,191.205429 
	C367.293121,176.248825 357.039734,163.181610 343.404236,152.632278 
	C331.914856,143.743301 319.767059,136.348114 306.026733,131.292145 
	C294.037476,126.880508 281.976227,123.653625 269.194580,122.999657 
	C252.414780,122.141113 235.860153,123.639748 219.498291,127.300919 
	C216.964920,127.867798 214.562393,128.857941 214.916748,132.606918 
	C215.324081,136.916229 215.011307,141.293579 215.011307,145.641388 
	C210.937408,140.735443 208.788467,134.939377 204.762115,131.125076 
	C193.257065,120.225883 179.607651,113.863922 163.199203,116.097176 
	C159.307709,116.626831 155.491302,117.886345 151.715378,119.052933 
	C141.309586,122.267822 133.868210,129.400421 128.125336,138.211456 
	C122.636833,146.632233 122.219360,156.332748 122.950996,166.047577 
	C123.307823,170.785690 123.093369,175.882858 124.816399,180.137604 
	C128.636368,189.570343 134.479385,197.677460 144.232620,202.165665 
	C145.403763,202.704605 146.126801,204.217270 147.152252,206.002762 
z"/>
<path fill="#0F0F0F" opacity="1.000000" stroke="none" 
	d="
M147.057541,205.278625 
	C146.126801,204.217270 145.403763,202.704605 144.232620,202.165665 
	C134.479385,197.677460 128.636368,189.570343 124.816399,180.137604 
	C123.093369,175.882858 123.307823,170.785690 122.950996,166.047577 
	C122.219360,156.332748 122.636833,146.632233 128.125336,138.211456 
	C133.868210,129.400421 141.309586,122.267822 151.715378,119.052933 
	C155.491302,117.886345 159.307709,116.626831 163.199203,116.097176 
	C179.607651,113.863922 193.257065,120.225883 204.762115,131.125076 
	C208.788467,134.939377 210.937408,140.735443 215.011307,145.641388 
	C215.011307,141.293579 215.324081,136.916229 214.916748,132.606918 
	C214.562393,128.857941 216.964920,127.867798 219.498291,127.300919 
	C235.860153,123.639748 252.414780,122.141113 269.194580,122.999657 
	C281.976227,123.653625 294.037476,126.880508 306.026733,131.292145 
	C319.767059,136.348114 331.914856,143.743301 343.404236,152.632278 
	C357.039734,163.181610 367.293121,176.248825 375.819580,191.205429 
	C384.486755,206.408951 388.621735,222.966614 391.915344,239.667343 
	C393.674225,248.585907 391.828644,258.176819 391.985901,267.457916 
	C392.297668,285.854736 387.132782,302.875336 379.410156,319.275940 
	C376.472443,325.514801 373.792389,331.985291 369.997131,337.685944 
	C363.200623,347.894714 355.278534,357.241058 346.036560,365.452759 
	C333.611725,376.492493 319.954865,385.615753 304.143463,390.703766 
	C294.673431,393.751190 284.670074,395.344269 274.793976,396.856842 
	C267.985413,397.899567 260.911591,398.481476 254.085007,397.858704 
	C241.623047,396.721802 228.857422,397.592316 216.865234,392.496521 
	C211.606171,390.261810 205.918289,388.411316 200.282593,387.869934 
	C195.021378,387.364502 189.569107,388.804596 184.204910,389.422913 
	C170.202347,391.036926 156.048737,391.903381 143.305862,384.793976 
	C131.066940,377.965759 123.303070,366.944580 123.175652,352.735352 
	C122.746773,304.909393 123.029228,257.076996 123.066879,209.247055 
	C123.068909,206.669159 123.320335,204.091461 124.111656,201.005188 
	C130.219147,206.093781 135.882095,211.462555 144.548706,212.495422 
	C145.053680,256.101135 145.067596,299.233154 145.106567,342.365173 
	C145.119217,356.374969 154.813461,366.659729 168.041901,366.779083 
	C181.602066,366.901428 191.804214,356.642822 191.813171,342.637207 
	C191.842239,297.173157 191.798447,251.709030 191.766525,206.244949 
	C191.765793,205.202698 191.573380,204.160583 191.431274,202.722900 
	C177.831726,209.011307 164.463623,210.015259 150.780624,204.949539 
	C149.724915,204.558685 148.307068,205.145981 147.057541,205.278625 
M364.960571,253.244141 
	C365.176636,238.170578 355.734924,228.301163 340.795502,228.123413 
	C332.349915,228.022903 323.902191,228.105286 314.997162,228.105286 
	C314.997162,226.022369 314.998749,224.400497 314.996918,222.778610 
	C314.980743,208.619781 315.099823,194.459137 314.909485,180.302643 
	C314.715057,165.844009 304.625671,155.103256 291.462128,154.962494 
	C276.478729,154.802261 265.976471,164.995071 265.827026,180.107590 
	C265.687012,194.265121 265.784851,208.424988 265.778290,222.583832 
	C265.777466,224.349884 265.778198,226.115936 265.778198,228.135727 
	C256.608276,228.135727 248.118637,227.994125 239.635330,228.165939 
	C223.242874,228.497925 212.381577,243.079483 217.016632,258.344299 
	C220.093033,268.475891 228.835587,274.729492 240.586121,274.942200 
	C248.854736,275.091888 257.128235,274.971130 265.787659,274.971130 
	C265.787659,277.282532 265.787445,279.079712 265.787659,280.876892 
	C265.790192,301.865234 265.704346,322.854126 265.830536,343.841736 
	C265.899658,355.336334 273.637085,365.517090 283.851654,368.108704 
	C300.069214,372.223328 314.759216,360.766907 314.908173,343.577911 
	C315.090057,322.591034 314.960907,301.601501 314.966156,280.613098 
	C314.966583,278.842773 314.966187,277.072449 314.966187,274.958466 
	C324.147614,274.958466 332.780365,275.076019 341.408661,274.930664 
	C354.061310,274.717468 363.170502,266.520233 364.960571,253.244141 
M185.558746,179.047424 
	C195.463486,167.897247 194.671112,152.234909 183.768616,143.662857 
	C172.879517,135.101349 156.918884,137.472443 148.883118,148.845413 
	C142.358765,158.079285 143.997223,172.010651 152.403015,179.875244 
	C160.553741,187.501251 175.610352,188.850113 185.558746,179.047424 
z"/>
<path fill="#FCFCFC" opacity="1.000000" stroke="none" 
	d="
M147.104889,205.640701 
	C148.307068,205.145981 149.724915,204.558685 150.780624,204.949539 
	C164.463623,210.015259 177.831726,209.011307 191.431274,202.722900 
	C191.573380,204.160583 191.765793,205.202698 191.766525,206.244949 
	C191.798447,251.709030 191.842239,297.173157 191.813171,342.637207 
	C191.804214,356.642822 181.602066,366.901428 168.041901,366.779083 
	C154.813461,366.659729 145.119217,356.374969 145.106567,342.365173 
	C145.067596,299.233154 145.053680,256.101135 144.936768,212.511597 
	C145.613068,210.036972 146.382660,208.019867 147.104889,205.640701 
z"/>
<path fill="#FDFDFD" opacity="1.000000" stroke="none" 
	d="
M364.887115,253.675110 
	C363.170502,266.520233 354.061310,274.717468 341.408661,274.930664 
	C332.780365,275.076019 324.147614,274.958466 314.966187,274.958466 
	C314.966187,277.072449 314.966583,278.842773 314.966156,280.613098 
	C314.960907,301.601501 315.090057,322.591034 314.908173,343.577911 
	C314.759216,360.766907 300.069214,372.223328 283.851654,368.108704 
	C273.637085,365.517090 265.899658,355.336334 265.830536,343.841736 
	C265.704346,322.854126 265.790192,301.865234 265.787659,280.876892 
	C265.787445,279.079712 265.787659,277.282532 265.787659,274.971130 
	C257.128235,274.971130 248.854736,275.091888 240.586121,274.942200 
	C228.835587,274.729492 220.093033,268.475891 217.016632,258.344299 
	C212.381577,243.079483 223.242874,228.497925 239.635330,228.165939 
	C248.118637,227.994125 256.608276,228.135727 265.778198,228.135727 
	C265.778198,226.115936 265.777466,224.349884 265.778290,222.583832 
	C265.784851,208.424988 265.687012,194.265121 265.827026,180.107590 
	C265.976471,164.995071 276.478729,154.802261 291.462128,154.962494 
	C304.625671,155.103256 314.715057,165.844009 314.909485,180.302643 
	C315.099823,194.459137 314.980743,208.619781 314.996918,222.778610 
	C314.998749,224.400497 314.997162,226.022369 314.997162,228.105286 
	C323.902191,228.105286 332.349915,228.022903 340.795502,228.123413 
	C355.734924,228.301163 365.176636,238.170578 364.887115,253.675110 
z"/>
<path fill="#FBFBFB" opacity="1.000000" stroke="none" 
	d="
M185.318497,179.316071 
	C175.610352,188.850113 160.553741,187.501251 152.403015,179.875244 
	C143.997223,172.010651 142.358765,158.079285 148.883118,148.845413 
	C156.918884,137.472443 172.879517,135.101349 183.768616,143.662857 
	C194.671112,152.234909 195.463486,167.897247 185.318497,179.316071 
z"/>
</svg>